<svg width="64" height="64" viewBox="0 0 64 64" fill="none" xmlns="http://www.w3.org/2000/svg">
<path d="M5.15321 47.5L32 1L58.8468 47.5H5.15321Z" stroke="black"/>
<circle cx="31.9997" cy="32" r="15.2746" stroke="black"/>
<line x1="32" y1="2" x2="32" y2="48" stroke="black"/>
<path d="M43.278 27.74L42.838 32.26L40.678 33.42L39.138 31.82L39.158 36.1L38.398 34.94L38.318 34.78L38.438 40L37.798 39L37.358 43.8L35.918 35.54L36.638 36.02L35.878 31.06L36.878 31.5L36.038 24.48H39.118V25.56L41.038 24.76L43.278 27.74ZM40.918 31.66L40.678 25.8L39.118 26.44L39.138 31.46L40.518 32.18L40.918 31.66Z" fill="black"/>
<path d="M21.6912 30.48L20.9712 30.76C20.7845 30.8533 20.7045 30.98 20.7312 31.14C20.7445 31.6733 21.1712 32.0667 22.0112 32.32L21.9512 26.08C21.8978 25.6133 21.6512 25.28 21.2112 25.08H24.9512C24.6445 25.32 24.4912 25.6 24.4912 25.92L24.5512 32.36C25.1112 32.1733 25.7845 31.8467 26.5712 31.38L26.5912 25.76C26.5912 25.4267 26.5645 25.2067 26.5112 25.1C26.4045 24.9 26.1312 24.7 25.6912 24.5L29.5512 24.44C29.0578 24.8667 28.7912 25.2333 28.7512 25.54L28.8312 30.04C29.4178 29.7333 29.8512 29.58 30.1312 29.58C30.4112 29.58 30.7645 29.66 31.1912 29.82C30.7245 30.18 30.4978 30.64 30.5112 31.2C30.2445 30.8267 29.9578 30.64 29.6512 30.64C29.4378 30.64 29.1712 30.7333 28.8512 30.92L28.9712 38.14C28.9712 38.4867 29.2712 38.78 29.8712 39.02L25.6512 38.96C26.1445 38.7467 26.4445 38.4267 26.5512 38L26.5712 32.36C25.8112 32.7733 25.1378 33.0533 24.5512 33.2L24.5912 37.18C24.6578 37.58 24.9712 37.8933 25.5312 38.12L20.9512 38.06C21.6845 37.8333 22.0512 37.4333 22.0512 36.86L22.0112 33C20.7445 32.6933 20.1245 31.9733 20.1512 30.84C20.6178 30.5867 21.0178 30.46 21.3512 30.46C21.4578 30.46 21.5712 30.4667 21.6912 30.48Z" fill="black"/>
</svg>
